<svg width="30" height="30" viewBox="0 0 30 30" fill="none" xmlns="http://www.w3.org/2000/svg">
<path d="M13.92 1.19999L13.17 1.94999C12.1803 1.39804 11.0875 1.05591 9.95971 0.944941C8.83193 0.83397 7.69337 0.956532 6.61505 1.30499L6.49505 1.19999C5.78062 0.561356 4.84882 0.22045 3.89094 0.247258C2.93306 0.274065 2.02179 0.666551 1.3442 1.34414C0.666612 2.02173 0.274126 2.933 0.247319 3.89088C0.220511 4.84876 0.561417 5.78056 1.20005 6.49499L1.30505 6.61499C0.956593 7.69331 0.834031 8.83187 0.945002 9.95965C1.05597 11.0874 1.3981 12.1803 1.95005 13.17L1.20005 13.92C0.778697 14.3419 0.542028 14.9137 0.542028 15.51C0.542028 16.1062 0.778697 16.6781 1.20005 17.1L3.31505 19.23C3.73692 19.6513 4.3088 19.888 4.90505 19.888C5.5013 19.888 6.07317 19.6513 6.49505 19.23L7.02005 18.69L17.64 29.295C18.0619 29.7163 18.6338 29.953 19.23 29.953C19.8263 29.953 20.3982 29.7163 20.82 29.295L29.295 20.82C29.7164 20.3981 29.9531 19.8262 29.9531 19.23C29.9531 18.6337 29.7164 18.0619 29.295 17.64L18.69 7.01999L19.23 6.49499C19.6514 6.07311 19.8881 5.50124 19.8881 4.90499C19.8881 4.30873 19.6514 3.73686 19.23 3.31499L17.1 1.19999C16.6782 0.778636 16.1063 0.541967 15.51 0.541967C14.9138 0.541967 14.3419 0.778636 13.92 1.19999ZM17.64 4.90499L4.90505 17.64L2.79005 15.51L15.51 2.78999L17.64 4.90499ZM19.23 14.445L14.445 19.23L12.855 17.64L17.64 12.855L19.23 14.445ZM22.41 17.64L17.64 22.41L16.035 20.82L20.82 16.035L22.41 17.64Z" fill="#5F5F5F"/>
</svg>
