<svg width="14" height="14" viewBox="0 0 14 14" fill="none" xmlns="http://www.w3.org/2000/svg">
<path d="M8.60994 7L13.4699 2.14C13.6338 1.9487 13.7194 1.70263 13.7096 1.45095C13.6999 1.19927 13.5956 0.960534 13.4175 0.782439C13.2394 0.604345 13.0007 0.500013 12.749 0.490292C12.4973 0.48057 12.2512 0.566176 12.0599 0.730002L7.19994 5.54L2.30993 0.650002C2.11863 0.486176 1.87256 0.400571 1.62088 0.410292C1.36921 0.420013 1.13047 0.524345 0.952371 0.702439C0.774276 0.880534 0.669945 1.11927 0.660223 1.37095C0.650502 1.62263 0.736108 1.8687 0.899934 2.06L5.77994 7L0.999935 11.72C0.895253 11.8096 0.810233 11.92 0.750209 12.044C0.690186 12.1681 0.656455 12.3032 0.651136 12.4409C0.645816 12.5787 0.669022 12.716 0.719297 12.8443C0.769571 12.9727 0.84583 13.0892 0.943284 13.1867C1.04074 13.2841 1.15729 13.3604 1.28561 13.4106C1.41394 13.4609 1.55127 13.4841 1.68899 13.4788C1.82671 13.4735 1.96184 13.4398 2.0859 13.3797C2.20997 13.3197 2.32029 13.2347 2.40993 13.13L7.17993 8.36L11.9199 13.1C12.1112 13.2638 12.3573 13.3494 12.609 13.3397C12.8607 13.33 13.0994 13.2257 13.2775 13.0476C13.4556 12.8695 13.5599 12.6307 13.5696 12.3791C13.5794 12.1274 13.4938 11.8813 13.3299 11.69L8.60994 7Z" fill="#5F5F5F"/>
</svg>
