<svg width="28" height="31" viewBox="0 0 28 31" fill="none" xmlns="http://www.w3.org/2000/svg">
<path d="M9.5 14V17H6.5V14H9.5ZM15.5 14V17H12.5V14H15.5ZM21.5 14V17H18.5V14H21.5ZM24.5 3.5C25.2956 3.5 26.0587 3.81607 26.6213 4.37868C27.1839 4.94129 27.5 5.70435 27.5 6.5V27.5C27.5 28.2956 27.1839 29.0587 26.6213 29.6213C26.0587 30.1839 25.2956 30.5 24.5 30.5H3.5C2.70435 30.5 1.94129 30.1839 1.37868 29.6213C0.81607 29.0587 0.5 28.2956 0.5 27.5V6.5C0.5 5.70435 0.81607 4.94129 1.37868 4.37868C1.94129 3.81607 2.70435 3.5 3.5 3.5H5V0.5H8V3.5H20V0.5H23V3.5H24.5ZM24.5 27.5V11H3.5V27.5H24.5ZM9.5 20V23H6.5V20H9.5ZM15.5 20V23H12.5V20H15.5ZM21.5 20V23H18.5V20H21.5Z" fill="white"/>
</svg>
