<svg width="28" height="25" viewBox="0 0 28 25" fill="none" xmlns="http://www.w3.org/2000/svg">
<path d="M23.75 9.53674e-07C24.7446 9.53674e-07 25.6984 0.395089 26.4016 1.09835C27.1049 1.80161 27.5 2.75544 27.5 3.75C27.5 4.74456 27.1049 5.69839 26.4016 6.40165C25.6984 7.10491 24.7446 7.5 23.75 7.5C22.7554 7.5 21.8016 7.10491 21.0984 6.40165C20.3951 5.69839 20 4.74456 20 3.75C20 2.75544 20.3951 1.80161 21.0984 1.09835C21.8016 0.395089 22.7554 9.53674e-07 23.75 9.53674e-07ZM2.75 24C2.15326 24 1.58097 23.7629 1.15901 23.341C0.737053 22.919 0.5 22.3467 0.5 21.75C0.5 21.1533 0.737053 20.581 1.15901 20.159C1.58097 19.7371 2.15326 19.5 2.75 19.5H13.25C13.8467 19.5 14.419 19.7371 14.841 20.159C15.2629 20.581 15.5 21.1533 15.5 21.75C15.5 22.3467 15.2629 22.919 14.841 23.341C14.419 23.7629 13.8467 24 13.25 24H2.75ZM20.135 22.5L18.035 16.5H12.5L6.125 10.125C6.125 10.125 9.5 6.375 14.75 6.375C19.25 6.375 19.775 7.875 20.09 8.805L24.38 21C24.8 22.17 24.17 23.46 23 23.88C21.83 24.285 20.54 23.67 20.135 22.5Z" fill="#5F5F5F"/>
</svg>
