<svg width="20" height="30" viewBox="0 0 20 30" fill="none" xmlns="http://www.w3.org/2000/svg">
<path d="M20 15.36V30H18.59V15.36C18.59 15.135 18.5 15 18.395 14.835C18.3353 14.7719 18.2631 14.722 18.1831 14.6884C18.103 14.6549 18.0168 14.6384 17.93 14.64C17.8337 14.634 17.7373 14.6483 17.6468 14.6818C17.5564 14.7154 17.474 14.7676 17.405 14.835C17.27 15 17.21 15.15 17.21 15.36V16.74H15.845V15.75C14.795 15.495 13.85 15.06 13.025 14.445C12.2 13.83 11.51 13.11 10.94 12.285L10.415 14.085C10.25 14.715 10.25 15.36 10.25 16.02V16.995L13.025 20.91V30H10.25V23.01L7.73 19.5L7.475 24.375L3.29 30L1.07 28.305L4.655 23.46V16.02C4.655 15.225 4.73 14.445 4.865 13.665L5.375 11.31L3.29 12.48V17.445H0.5V10.845L8 6.6C8.435 6.39 8.885 6.27 9.365 6.27C9.845 6.27 10.31 6.405 10.745 6.66C11.225 6.93 11.585 7.32 11.855 7.845L12.965 10.2C13.4 11.07 14.06 11.805 14.96 12.39C15.845 12.975 16.835 13.275 17.93 13.275C18.5 13.275 18.98 13.5 19.4 13.86C19.82 14.25 20 14.745 20 15.36ZM11 0C11.7956 0 12.5587 0.31607 13.1213 0.87868C13.6839 1.44129 14 2.20435 14 3C14 4.665 12.665 6 11 6C10.2044 6 9.44129 5.68393 8.87868 5.12132C8.31607 4.55871 8 3.79565 8 3C8 2.20435 8.31607 1.44129 8.87868 0.87868C9.44129 0.31607 10.2044 0 11 0Z" fill="#5F5F5F"/>
</svg>
