<svg width="14" height="28" viewBox="0 0 14 28" fill="none" xmlns="http://www.w3.org/2000/svg">
<path d="M1.75 3.4C1.75 1.78623 3.3075 0.49231 5.25 0.49231C7.1925 0.49231 8.75 1.78623 8.75 3.4C8.75 5.01377 7.1925 6.30769 5.25 6.30769C3.3075 6.30769 1.75 5.01377 1.75 3.4ZM14 16.4846C14 14.5365 12.5475 12.85 10.5 12.1231C10.5 10.9663 9.94688 9.85695 8.96231 9.03901C7.97775 8.22106 6.64239 7.76154 5.25 7.76154C3.85761 7.76154 2.52225 8.22106 1.53769 9.03901C0.553123 9.85695 0 10.9663 0 12.1231V22.3H3.5V29.5692H8.75V22.3H14V16.4846Z" fill="#5F5F5F"/>
</svg>
